<svg width="18" height="18" viewBox="0 0 18 18" fill="none" xmlns="http://www.w3.org/2000/svg">
<path d="M15.0229 7.14797L9.39792 12.773C9.34568 12.8253 9.28365 12.8668 9.21536 12.8951C9.14707 12.9234 9.07388 12.9379 8.99996 12.9379C8.92603 12.9379 8.85284 12.9234 8.78455 12.8951C8.71627 12.8668 8.65423 12.8253 8.60199 12.773L2.97699 7.14797C2.89823 7.0693 2.84459 6.96903 2.82284 6.85986C2.8011 6.75069 2.81224 6.63752 2.85485 6.53468C2.89747 6.43184 2.96963 6.34396 3.06221 6.28216C3.1548 6.22036 3.26364 6.18741 3.37495 6.1875H14.625C14.7363 6.18741 14.8451 6.22036 14.9377 6.28216C15.0303 6.34396 15.1024 6.43184 15.1451 6.53468C15.1877 6.63752 15.1988 6.75069 15.1771 6.85986C15.1553 6.96903 15.1017 7.0693 15.0229 7.14797Z" fill="#F76746"/>
</svg>
