<svg width="98" height="75" viewBox="0 0 98 75" fill="none" xmlns="http://www.w3.org/2000/svg">
<path d="M22.5357 19.8243C25.6839 18.0067 27.2477 14.8214 26.0286 12.7098C24.8094 10.5982 21.2689 10.3599 18.1207 12.1776C14.9725 13.9952 13.4087 17.1805 14.6279 19.2921C15.8471 21.4037 19.3875 21.642 22.5357 19.8243Z" fill="#043340"/>
<path d="M16.9947 15.8828C16.5153 15.3186 15.3135 13.1925 11.6118 6.59638L14.1462 4.68359C17.036 7.58258 20.7629 11.3967 21.373 11.9586C21.4785 12.0549 16.9947 15.8828 16.9947 15.8828Z" fill="#043340"/>
<path d="M11.9237 9.2897C14.476 9.2897 16.5451 7.22061 16.5451 4.66828C16.5451 2.11594 14.476 0.046875 11.9237 0.046875C9.37133 0.046875 7.30225 2.11594 7.30225 4.66828C7.30225 7.22061 9.37133 9.2897 11.9237 9.2897Z" fill="#C5D5E8"/>
<path opacity="0.46" d="M11.9239 0.046875C11.5546 0.046875 11.1968 0.0904466 10.8528 0.170719C12.8894 0.654649 14.4054 2.48486 14.4054 4.66828C14.4054 6.8517 12.8894 8.68192 10.8528 9.16585C11.1968 9.24842 11.5546 9.2897 11.9239 9.2897C14.4765 9.2897 16.5453 7.22095 16.5453 4.66828C16.5453 2.11561 14.4765 0.046875 11.9239 0.046875Z" fill="#A4B6BF"/>
<path d="M10.8528 9.16584C15.637 10.1016 18.3434 4.06967 14.7128 1.13858C13.6669 0.276217 12.222 -0.0953353 10.8528 0.173005C13.6371 -0.634309 16.6783 1.47112 16.7012 4.67056C16.6783 7.8356 13.66 9.98003 10.8528 9.16584Z" fill="#043340"/>
<path opacity="0.46" d="M10.0154 6.21483C11.0692 6.21483 11.9236 5.3605 11.9236 4.30663C11.9236 3.25277 11.0692 2.39844 10.0154 2.39844C8.96151 2.39844 8.10718 3.25277 8.10718 4.30663C8.10718 5.3605 8.96151 6.21483 10.0154 6.21483Z" fill="#C5D5E8"/>
<path d="M79.9517 12.771C76.8035 10.9534 73.2631 11.1916 72.0439 13.3032C70.8247 15.4148 72.3885 18.6001 75.5367 20.4178C78.6849 22.2355 82.2254 21.9972 83.4446 19.8856C84.6637 17.774 83.0999 14.5887 79.9517 12.771Z" fill="#043340"/>
<path d="M81.0779 16.4726C81.5572 15.9084 82.759 13.7823 86.4607 7.18623L83.9264 5.27344C80.8577 8.35132 77.0023 12.2434 76.8096 12.3558C76.789 12.3695 81.0779 16.4726 81.0779 16.4726Z" fill="#043340"/>
<path d="M86.1487 9.87954C88.7011 9.87954 90.7702 7.81046 90.7702 5.25812C90.7702 2.70579 88.7011 0.636719 86.1487 0.636719C83.5964 0.636719 81.5273 2.70579 81.5273 5.25812C81.5273 7.81046 83.5964 9.87954 86.1487 9.87954Z" fill="#C5D5E8"/>
<path opacity="0.46" d="M86.1487 0.636719C86.518 0.636719 86.8758 0.68029 87.2198 0.760563C85.1832 1.24449 83.6672 3.07471 83.6672 5.25812C83.6672 7.44154 85.1832 9.27175 87.2198 9.75568C86.8758 9.83825 86.518 9.87954 86.1487 9.87954C83.5961 9.87954 81.5273 7.81079 81.5273 5.25812C81.5273 2.70545 83.5961 0.636719 86.1487 0.636719Z" fill="#A4B6BF"/>
<path d="M87.2198 9.75567C82.4355 10.6914 79.7292 4.6595 83.3598 1.7284C84.4056 0.866047 85.8506 0.494508 87.2198 0.762848C84.4355 -0.0444651 81.3943 2.06097 81.3713 5.26041C81.3943 8.42315 84.4125 10.5699 87.2198 9.75567Z" fill="#043340"/>
<path opacity="0.46" d="M88.0569 6.80077C89.1107 6.80077 89.9651 5.94644 89.9651 4.89257C89.9651 3.8387 89.1107 2.98438 88.0569 2.98438C87.003 2.98438 86.1487 3.8387 86.1487 4.89257C86.1487 5.94644 87.003 6.80077 88.0569 6.80077Z" fill="#C5D5E8"/>
<path d="M48.6751 65.1836C75.5575 65.1836 97.3501 55.3968 97.3501 43.3242C97.3501 31.2516 75.5575 21.4648 48.6751 21.4648C21.7926 21.4648 0 31.2516 0 43.3242C0 55.3968 21.7926 65.1836 48.6751 65.1836Z" fill="#043340"/>
<path d="M91.6692 53.5865C90.8068 54.3136 89.8527 55.0177 88.8184 55.6942C91.3412 48.4399 92.4329 40.3874 92.1692 33.5C92.965 34.2087 93.676 34.938 94.2998 35.6903C94.2746 41.3667 93.4145 47.6372 91.6692 53.5865Z" fill="#A2BFDC"/>
<path d="M3.06656 35.6714C3.69268 34.9192 4.40826 34.1875 5.2064 33.4766C4.79816 40.4282 6.19032 48.6206 8.97005 55.9735C7.8921 55.2924 6.89901 54.5814 5.99766 53.8452C4.05048 47.7857 3.03674 41.4075 3.06656 35.6714Z" fill="#A2BFDC"/>
<path d="M35.4438 74.2909C44.4595 73.0387 53.606 72.8483 62.6952 73.7313C83.6005 75.7633 91.0406 44.4501 88.0591 28.6892C86.5385 20.6527 77.5823 14.8937 70.0206 13.1048C56.3147 9.86408 41.6752 9.65997 27.8981 12.5498C20.5062 14.1231 13.1945 19.139 10.3161 26.3452C4.30944 41.4021 15.0224 77.1234 35.4438 74.2909Z" fill="#A2BFDC"/>
<path opacity="0.46" d="M10.3209 26.3466C11.7429 22.7848 14.2497 19.7573 17.3138 17.418C16.2863 18.7895 15.4263 20.2803 14.7887 21.8811C8.77739 36.938 19.4926 72.6593 39.914 69.8245C48.9298 68.5746 58.0763 68.3819 67.1654 69.2649C72.1263 69.7466 76.3257 68.3521 79.8118 65.7329C75.6652 71.0791 70.0048 74.4391 62.7 73.7304C53.6108 72.8474 44.462 73.04 35.4485 74.29C15.0226 77.1225 4.30964 41.4011 10.3209 26.3466Z" fill="#A4B6BF"/>
<path d="M67.25 25.0196C54.8972 24.0586 42.4894 24.0586 30.1365 25.0196C10.3298 26.5585 3.50894 59.2983 39.3358 64.2064C50.7001 65.7637 64.3465 64.9495 74.3071 58.7777C89.903 49.1151 84.3435 26.3475 67.25 25.0196Z" fill="#C5D5E8"/>
<path d="M49.2576 64.3497C46.0123 64.3497 42.6981 64.1204 39.407 63.6708C20.5888 61.0929 14.1555 50.9258 14.4101 42.2724C14.6692 33.4241 21.4488 26.2385 30.1779 25.5597C36.3107 25.0826 42.5399 24.8418 48.6911 24.8418C54.8423 24.8418 61.0714 25.0826 67.2042 25.5597C74.6742 26.1399 80.6511 31.243 82.4285 38.557C84.2977 46.2379 80.9951 53.9945 74.0182 58.3178C65.9749 63.3016 56.1151 64.3497 49.2576 64.3497Z" fill="#043340"/>
<g opacity="0.34">
<path d="M52.129 17.0813C52.34 18.9551 58.0141 19.8565 64.6951 20.7211C71.3852 21.5238 77.1053 22.0445 77.7704 20.2807C78.4447 18.5629 73.1168 14.9461 65.5322 14.0149C57.9522 13.0539 51.8973 15.2511 52.129 17.0813Z" fill="#A2BFDC"/>
</g>
<path d="M48.8631 59.2367C41.705 59.2367 35.657 53.6291 34.7924 46.1936C34.7282 45.6317 35.1295 45.1225 35.6914 45.056C36.2556 44.9918 61.4727 44.9918 62.0346 45.056C62.5966 45.1225 63.0002 45.6294 62.9337 46.1936C62.069 53.6291 56.0211 59.2367 48.8631 59.2367Z" fill="#70CDDD"/>
<path d="M30.632 37.3186C31.8644 37.3186 32.8636 36.3195 32.8636 35.087C32.8636 33.8546 31.8644 32.8555 30.632 32.8555C29.3995 32.8555 28.4004 33.8546 28.4004 35.087C28.4004 36.3195 29.3995 37.3186 30.632 37.3186Z" fill="#70CDDD"/>
<path d="M67.0941 37.3186C68.3266 37.3186 69.3257 36.3195 69.3257 35.087C69.3257 33.8546 68.3266 32.8555 67.0941 32.8555C65.8617 32.8555 64.8625 33.8546 64.8625 35.087C64.8625 36.3195 65.8617 37.3186 67.0941 37.3186Z" fill="#70CDDD"/>
</svg>
