<svg width="65" height="65" viewBox="0 0 65 65" fill="none" xmlns="http://www.w3.org/2000/svg">
<rect x="0.285645" y="0.619141" width="64" height="64" rx="32" fill="#303030"/>
<g clip-path="url(#clip0_906_9601)">
<path d="M47 20.5H17C16.6685 20.5 16.3505 20.6317 16.1161 20.8661C15.8817 21.1005 15.75 21.4185 15.75 21.75V43C15.75 43.663 16.0134 44.2989 16.4822 44.7678C16.9511 45.2366 17.587 45.5 18.25 45.5H45.75C46.413 45.5 47.0489 45.2366 47.5178 44.7678C47.9866 44.2989 48.25 43.663 48.25 43V21.75C48.25 21.4185 48.1183 21.1005 47.8839 20.8661C47.6495 20.6317 47.3315 20.5 47 20.5ZM45.75 43H18.25V24.5922L31.1547 36.4219C31.3853 36.6336 31.687 36.751 32 36.751C32.313 36.751 32.6147 36.6336 32.8453 36.4219L45.75 24.5922V43Z" fill="white"/>
</g>
<defs>
<clipPath id="clip0_906_9601">
<rect width="40" height="40" fill="white" transform="translate(12 13)"/>
</clipPath>
</defs>
</svg>
