<svg width="60" height="60" viewBox="0 0 60 60" fill="none" xmlns="http://www.w3.org/2000/svg">
<circle cx="30" cy="30" r="26" fill="white"/>
<path fill-rule="evenodd" clip-rule="evenodd" d="M60 30C60 46.5375 46.575 60 30 60C13.425 60 0 46.5375 0 30C0 13.425 13.425 0 30 0C46.575 0 60 13.425 60 30ZM39.375 12.7875C39.375 12.7875 36.8625 12.375 34.4625 12.375C29.475 12.375 26.175 15.375 26.175 20.8875V25.725H20.625V32.025H26.175V47.3625C27.3 47.5375 28.45 47.625 29.625 47.625C30.775 47.625 31.9125 47.5375 33.0375 47.3625V32.025H38.1375L39.1125 25.725H33.0375V21.6C33.0375 19.875 33.9 18.1875 36.6 18.1875H39.375V12.7875Z" fill="#303030"/>
</svg>
