<svg width="60" height="60" viewBox="0 0 60 60" fill="none" xmlns="http://www.w3.org/2000/svg">
<circle cx="32" cy="30" r="26" fill="white"/>
<path fill-rule="evenodd" clip-rule="evenodd" d="M43.7251 23.1766C43.8001 24.9391 43.8376 25.4641 43.8376 30.0016C43.8376 34.5016 43.8001 35.0266 43.7251 36.7891C43.6501 38.4391 43.3876 39.3391 43.1626 39.9391C42.8626 40.7266 42.4876 41.2891 41.8876 41.8891C41.2876 42.4891 40.7251 42.8266 39.9376 43.1266C39.3751 43.3891 38.4751 43.6516 36.8251 43.7266C35.0251 43.8016 34.5001 43.8391 30.0001 43.8391C25.5001 43.8391 24.9751 43.8016 23.1751 43.7266C21.5251 43.6516 20.6251 43.3891 20.0626 43.1266C19.2751 42.8266 18.7126 42.4891 18.1126 41.8891C17.5126 41.2891 17.1376 40.7266 16.8376 39.9391C16.6126 39.3391 16.3501 38.4391 16.2751 36.7891C16.2001 35.0266 16.1626 34.5016 16.1626 30.0016C16.1626 25.4641 16.2001 24.9391 16.2751 23.1766C16.3501 21.5266 16.6126 20.6266 16.8376 20.0266C17.1376 19.2391 17.5126 18.6766 18.1126 18.0766C18.7126 17.5141 19.2751 17.1391 20.0626 16.8391C20.6251 16.6141 21.5251 16.3141 23.1751 16.2391C24.9751 16.1641 25.5001 16.1641 30.0001 16.1641C34.5001 16.1641 35.0251 16.1641 36.8251 16.2391C38.4751 16.3141 39.3751 16.6141 39.9376 16.8391C40.7251 17.1391 41.2876 17.5141 41.8876 18.0766C42.4876 18.6766 42.8626 19.2391 43.1626 20.0266C43.3876 20.6266 43.6501 21.5266 43.7251 23.1766ZM38.6626 30.0016C38.6626 25.2016 34.8001 21.3391 30.0001 21.3391C25.2001 21.3391 21.3376 25.2016 21.3376 30.0016C21.3376 34.7641 25.2001 38.6641 30.0001 38.6641C34.8001 38.6641 38.6626 34.7641 38.6626 30.0016ZM41.0251 20.9641C41.0251 19.8766 40.1251 18.9391 39.0001 18.9391C37.8751 18.9391 36.9751 19.8766 36.9751 20.9641C36.9751 22.0891 37.8751 22.9891 39.0001 22.9891C40.1251 22.9891 41.0251 22.0891 41.0251 20.9641Z" fill="#303030"/>
<path d="M30 24.375C26.8875 24.375 24.375 26.8875 24.375 30C24.375 33.075 26.8875 35.625 30 35.625C33.1125 35.625 35.625 33.075 35.625 30C35.625 26.8875 33.1125 24.375 30 24.375Z" fill="#303030"/>
<path fill-rule="evenodd" clip-rule="evenodd" d="M60 30C60 46.5375 46.575 60 30 60C13.425 60 0 46.5375 0 30C0 13.425 13.425 0 30 0C46.575 0 60 13.425 60 30ZM46.875 30C46.875 25.3875 46.8375 24.825 46.7625 23.025C46.6875 21.225 46.425 19.9875 45.975 18.9375C45.5625 17.8125 44.9625 16.875 44.025 15.9375C43.0875 15 42.15 14.4375 41.0625 13.9875C39.975 13.575 38.7375 13.3125 36.975 13.2C35.175 13.125 34.575 13.125 30 13.125C25.425 13.125 24.825 13.125 23.025 13.2C21.2625 13.3125 20.025 13.575 18.9375 13.9875C17.85 14.4375 16.9125 15 15.975 15.9375C15.0375 16.875 14.4375 17.8125 14.025 18.9375C13.6125 19.9875 13.3125 21.225 13.2375 23.025C13.1625 24.825 13.125 25.3875 13.125 30C13.125 34.575 13.1625 35.1375 13.2375 36.9375C13.3125 38.7375 13.6125 39.975 14.025 41.025C14.4375 42.15 15.0375 43.0875 15.975 44.025C16.9125 44.9625 17.85 45.525 18.9375 45.975C20.025 46.3875 21.2625 46.6875 23.025 46.7625C24.825 46.8375 25.425 46.875 30 46.875C34.575 46.875 35.175 46.8375 36.975 46.7625C38.7375 46.6875 39.975 46.3875 41.0625 45.975C42.15 45.525 43.0875 44.9625 44.025 44.025C44.9625 43.0875 45.5625 42.15 45.975 41.025C46.425 39.975 46.6875 38.7375 46.7625 36.9375C46.8375 35.1375 46.875 34.575 46.875 30Z" fill="#303030"/>
</svg>
