<svg width="44" height="18" viewBox="0 0 44 18" fill="none" xmlns="http://www.w3.org/2000/svg">
<path d="M4.70909 0H0V17.9997H4.70909V0Z" fill="#1AA7C6"/>
<path d="M23.6784 0H16.5974V4.13401H23.6784V0Z" fill="#1AA7C6"/>
<path d="M16.5977 0H11.864V17.9997H16.5977V0Z" fill="#1AA7C6"/>
<path d="M23.9347 6.89844H19.5166V18.0003H23.9347V6.89844Z" fill="#FC0041"/>
<path d="M31.1239 7.41211H26.3901V18.0002H31.1239V7.41211Z" fill="#1AA7C6"/>
<path d="M37.351 0H33.0471V1.58824H37.351V0Z" fill="#1AA7C6"/>
<path d="M23.6786 4.13417H24.926C24.926 4.13417 25.6953 4.13417 26.0898 4.67654C26.0898 4.67654 26.435 5.11774 26.3904 6.45685V7.50523H31.1241V3.56584C31.1241 3.56584 30.9762 1.5417 29.7558 0.794253C29.7558 0.794253 28.7129 -0.101026 26.9674 0.000161381H23.6575L23.6786 4.13417Z" fill="#1AA7C6"/>
<path d="M37.4553 14.0288C37.4553 14.0288 38.9543 14.0859 39.0036 12.3628C39.0036 12.3628 38.9149 10.9614 38.1358 10.0479L33.5648 3.84559C33.5648 3.84559 33.0619 3.25393 33.0471 2.58438V1.58789H37.3518C37.3518 1.58789 37.3203 1.67753 37.7068 2.17956L43.0669 10.4113C43.0669 10.4113 44.7295 13.2144 43.6159 15.3533C43.1053 16.3074 42.2236 17.5468 40.0884 17.9472C39.4005 18.0065 38.9642 17.9994 37.3273 17.9994L37.4553 14.0288Z" fill="#1AA7C6"/>
</svg>
