<svg width="44" height="18" viewBox="0 0 44 18" fill="none" xmlns="http://www.w3.org/2000/svg">
<g clip-path="url(#clip0_903_8454)">
<path d="M11.3019 14.0293H4.48242V17.9998H11.3019V14.0293Z" fill="#1AA7C6"/>
<path d="M37.4556 14.0293H32.1006V17.9998H37.4556V14.0293Z" fill="#1AA7C6"/>
<path d="M4.70909 0H0V17.9997H4.70909V0Z" fill="#1AA7C6"/>
<path d="M23.6786 0H16.5977V4.13401H23.6786V0Z" fill="#1AA7C6"/>
<path d="M16.598 0H11.8643V17.9997H16.598V0Z" fill="#1AA7C6"/>
<path d="M23.9347 6.89844H19.5166V18.0003H23.9347V6.89844Z" fill="#FC0041"/>
<path d="M31.1234 7.41211H26.3896V18.0002H31.1234V7.41211Z" fill="#1AA7C6"/>
<path d="M37.3507 0H33.0469V1.58824H37.3507V0Z" fill="#1AA7C6"/>
<path d="M23.6783 4.13417H24.9257C24.9257 4.13417 25.6951 4.13417 26.0895 4.67654C26.0895 4.67654 26.4347 5.11774 26.3902 6.45685V7.50523H31.1239V3.56584C31.1239 3.56584 30.976 1.5417 29.7555 0.794253C29.7555 0.794253 28.7127 -0.101026 26.9672 0.000161381H23.6572L23.6783 4.13417Z" fill="#1AA7C6"/>
<path d="M37.4551 14.0288C37.4551 14.0288 38.954 14.0859 39.0034 12.3628C39.0034 12.3628 38.9147 10.9614 38.1355 10.0479L33.5646 3.84559C33.5646 3.84559 33.0617 3.25393 33.0469 2.58438V1.58789H37.3515C37.3515 1.58789 37.3201 1.67753 37.7065 2.17956L43.0666 10.4113C43.0666 10.4113 44.7292 13.2144 43.6157 15.3533C43.1051 16.3074 42.2233 17.5468 40.0882 17.9472C39.4002 18.0065 38.9639 17.9994 37.327 17.9994L37.4551 14.0288Z" fill="#1AA7C6"/>
</g>
<defs>
<clipPath id="clip0_903_8454">
<rect width="44" height="18" fill="white"/>
</clipPath>
</defs>
</svg>
