<svg width="112" height="51" viewBox="0 0 112 51" fill="none" xmlns="http://www.w3.org/2000/svg">
<path d="M3.10228 37.726L6.90627 35.3501C7.41511 35.0218 7.72698 34.7141 7.84188 34.4268C7.96498 34.1314 8.02654 33.8441 8.02654 33.5651C8.02654 33.2286 7.90343 32.9126 7.65722 32.6172C7.41921 32.3135 7.08272 32.1617 6.64774 32.1617C6.32767 32.1617 6.05683 32.2355 5.83524 32.3833C5.62186 32.5228 5.45772 32.7115 5.34282 32.9495C5.23612 33.1875 5.18278 33.4543 5.18278 33.7497C5.18278 34.119 5.28537 34.4925 5.49054 34.87C5.69572 35.2475 5.96656 35.6455 6.30305 36.0641C6.64774 36.4827 7.02937 36.9423 7.44794 37.4429L15.8807 47.1436H11.2519L4.38259 39.3387C3.8163 38.6165 3.32387 37.9517 2.90531 37.3444C2.49496 36.7371 2.17488 36.1462 1.94508 35.5717C1.71528 34.9972 1.60038 34.4063 1.60038 33.799C1.60038 32.8552 1.80556 32.0222 2.21591 31.2999C2.63448 30.5695 3.22128 29.9991 3.97634 29.5888C4.7396 29.1702 5.63417 28.9609 6.66005 28.9609C7.61208 28.9609 8.43689 29.1579 9.13449 29.5518C9.8403 29.9458 10.3861 30.471 10.7718 31.1276C11.1575 31.7759 11.3504 32.49 11.3504 33.2696C11.3504 33.8113 11.2478 34.3242 11.0426 34.8084C10.8375 35.2926 10.5543 35.7358 10.1932 36.138C9.8403 36.5401 9.43405 36.9053 8.97445 37.2336L4.8627 40.102C4.69856 40.3071 4.56314 40.5164 4.45645 40.7298C4.35797 40.935 4.2841 41.1442 4.23486 41.3576C4.19382 41.571 4.17331 41.8008 4.17331 42.047C4.17331 42.4738 4.26358 42.8513 4.44414 43.1796C4.6247 43.4997 4.8627 43.75 5.15816 43.9305C5.46182 44.1111 5.7901 44.2014 6.14301 44.2014C6.80778 44.2014 7.44794 44.0577 8.06347 43.7705C8.68721 43.475 9.24529 43.0606 9.73771 42.5271C10.2301 41.9937 10.62 41.3576 10.9072 40.619C11.1945 39.8804 11.3381 39.0679 11.3381 38.1815H14.8097C14.8097 39.1499 14.7112 40.0732 14.5142 40.9514C14.3255 41.8213 14.0095 42.6256 13.5663 43.3642C13.1313 44.1029 12.5445 44.7512 11.8059 45.3093C11.7649 45.3339 11.6869 45.3832 11.572 45.457C11.4653 45.5227 11.3873 45.5678 11.3381 45.5924C10.4764 46.208 9.62692 46.6635 8.78979 46.9589C7.95267 47.2544 6.97603 47.4021 5.85986 47.4021C4.65342 47.4021 3.61112 47.1846 2.73296 46.7496C1.86301 46.3147 1.19003 45.7156 0.714017 44.9523C0.238006 44.1891 0 43.315 0 42.3302C0 41.6326 0.131313 41.0252 0.39394 40.5082C0.656567 39.983 1.02178 39.4987 1.48959 39.0556C1.95739 38.6124 2.49496 38.1692 3.10228 37.726Z" fill="white"/>
<path d="M3.42674 37.726L7.23073 35.3501C7.73957 35.0218 8.05144 34.7141 8.16634 34.4268C8.28945 34.1314 8.351 33.8441 8.351 33.5651C8.351 33.2286 8.22789 32.9126 7.98168 32.6172C7.74367 32.3135 7.40718 32.1617 6.97221 32.1617C6.65213 32.1617 6.3813 32.2355 6.15971 32.3833C5.94632 32.5228 5.78218 32.7115 5.66728 32.9495C5.56059 33.1875 5.50724 33.4543 5.50724 33.7497C5.50724 34.119 5.60983 34.4925 5.81501 34.87C6.02018 35.2475 6.29102 35.6455 6.62751 36.0641C6.97221 36.4827 7.35384 36.9423 7.7724 37.4429L16.2052 47.1436H11.5764L4.70705 39.3387C4.14076 38.6165 3.64833 37.9517 3.22977 37.3444C2.81942 36.7371 2.49934 36.1462 2.26954 35.5717C2.03974 34.9972 1.92485 34.4063 1.92485 33.799C1.92485 32.8552 2.13002 32.0222 2.54038 31.2999C2.95894 30.5695 3.54575 29.9991 4.3008 29.5888C5.06406 29.1702 5.95863 28.9609 6.98452 28.9609C7.93654 28.9609 8.76135 29.1579 9.45896 29.5518C10.1648 29.9458 10.7105 30.471 11.0963 31.1276C11.482 31.7759 11.6749 32.49 11.6749 33.2696C11.6749 33.8113 11.5723 34.3242 11.3671 34.8084C11.1619 35.2926 10.8788 35.7358 10.5177 36.138C10.1648 36.5401 9.75851 36.9053 9.29892 37.2336L5.18716 40.102C5.02302 40.3071 4.88761 40.5164 4.78091 40.7298C4.68243 40.935 4.60856 41.1442 4.55932 41.3576C4.51829 41.571 4.49777 41.8008 4.49777 42.047C4.49777 42.4738 4.58805 42.8513 4.7686 43.1796C4.94916 43.4997 5.18716 43.75 5.48262 43.9305C5.78628 44.1111 6.11457 44.2014 6.46747 44.2014C7.13225 44.2014 7.7724 44.0577 8.38793 43.7705C9.01167 43.475 9.56975 43.0606 10.0622 42.5271C10.5546 41.9937 10.9444 41.3576 11.2317 40.619C11.5189 39.8804 11.6626 39.0679 11.6626 38.1815H15.1342C15.1342 39.1499 15.0357 40.0732 14.8387 40.9514C14.6499 41.8213 14.334 42.6256 13.8908 43.3642C13.4558 44.1029 12.869 44.7512 12.1304 45.3093C12.0893 45.3339 12.0114 45.3832 11.8965 45.457C11.7898 45.5227 11.7118 45.5678 11.6626 45.5924C10.8008 46.208 9.95138 46.6635 9.11426 46.9589C8.27713 47.2544 7.30049 47.4021 6.18433 47.4021C4.97788 47.4021 3.93558 47.1846 3.05742 46.7496C2.18747 46.3147 1.51449 45.7156 1.03848 44.9523C0.562469 44.1891 0.324463 43.315 0.324463 42.3302C0.324463 41.6326 0.455776 41.0252 0.718403 40.5082C0.98103 39.983 1.34625 39.4987 1.81405 39.0556C2.28185 38.6124 2.81942 38.1692 3.42674 37.726Z" fill="white"/>
<path d="M104.768 45.3409L107.55 35.7578H111.146L106.825 48.2309C106.732 48.5052 106.61 48.7995 106.457 49.1139C106.305 49.4351 106.096 49.7394 105.831 50.0271C105.566 50.3148 105.225 50.5489 104.808 50.7295C104.397 50.9102 103.887 51.0005 103.278 51.0005C102.954 51.0005 102.715 50.9837 102.563 50.9503C102.417 50.9235 102.192 50.8734 101.887 50.7998V48.3814C101.973 48.3814 102.046 48.3814 102.106 48.3814C102.172 48.3814 102.245 48.3814 102.324 48.3814C102.682 48.3814 102.967 48.3446 103.179 48.271C103.397 48.1975 103.563 48.0904 103.676 47.9499C103.795 47.8094 103.887 47.6389 103.954 47.4382L104.768 45.3409ZM104.063 35.7578L106.179 43.3541L106.547 46.9364H104.301L100.477 35.7578H104.063Z" fill="white"/>
<path d="M95.7667 35.9573H98.9521V46.3319C98.9521 47.3295 98.7127 48.1741 98.2338 48.8657C97.755 49.564 97.0853 50.0927 96.2248 50.4518C95.3712 50.8176 94.3719 51.0005 93.2268 51.0005C92.7202 51.0005 92.2032 50.9373 91.6758 50.8109C91.1483 50.6912 90.6556 50.5117 90.1976 50.2723C89.7396 50.0328 89.3544 49.7369 89.0421 49.3844L90.5099 47.4093C90.7944 47.7152 91.1518 47.9745 91.5821 48.1874C92.0123 48.4068 92.5189 48.5166 93.1019 48.5166C93.6085 48.5166 94.0318 48.4301 94.3719 48.2572C94.7188 48.0843 94.9826 47.8316 95.163 47.499C95.3434 47.1732 95.4336 46.7775 95.4336 46.312V38.5111L95.7667 35.9573ZM88.2822 41.4838V41.2743C88.2822 40.4563 88.3863 39.7115 88.5945 39.0398C88.8096 38.3614 89.115 37.7795 89.5106 37.294C89.9131 36.8019 90.3988 36.4228 90.9679 36.1568C91.537 35.8908 92.1789 35.7578 92.8937 35.7578C93.664 35.7578 94.2955 35.9008 94.7882 36.1868C95.2879 36.4661 95.6869 36.8584 95.9853 37.3639C96.2907 37.8693 96.5266 38.4612 96.6932 39.1395C96.8667 39.8112 97.0124 40.5361 97.1304 41.3142V41.5636C97.0124 42.2951 96.8493 42.9868 96.6411 43.6385C96.4399 44.2836 96.1762 44.8555 95.85 45.3543C95.5239 45.8531 95.1144 46.2455 94.6217 46.5314C94.1359 46.8107 93.553 46.9504 92.8729 46.9504C92.165 46.9504 91.5266 46.8141 90.9575 46.5414C90.3954 46.2687 89.9131 45.8863 89.5106 45.3942C89.115 44.9021 88.8096 44.3235 88.5945 43.6585C88.3863 42.9934 88.2822 42.2685 88.2822 41.4838ZM91.7903 41.2743V41.4838C91.7903 41.8895 91.8284 42.2652 91.9048 42.611C91.9881 42.9568 92.113 43.2628 92.2795 43.5288C92.4461 43.7881 92.6508 43.991 92.8937 44.1373C93.1435 44.2836 93.435 44.3567 93.7681 44.3567C94.2747 44.3567 94.6841 44.2537 94.9964 44.0475C95.3087 43.8413 95.5343 43.5487 95.6731 43.1697C95.8119 42.7906 95.8708 42.345 95.85 41.8329V41.0449C95.8639 40.6059 95.8327 40.2202 95.7563 39.8877C95.68 39.5485 95.5585 39.2659 95.392 39.0398C95.2324 38.8137 95.0172 38.6441 94.7466 38.531C94.4829 38.4113 94.1637 38.3515 93.7889 38.3515C93.4627 38.3515 93.1747 38.4246 92.9249 38.5709C92.6751 38.7172 92.4669 38.9234 92.3003 39.1894C92.1338 39.4488 92.0054 39.758 91.9152 40.1171C91.8319 40.4696 91.7903 40.8553 91.7903 41.2743Z" fill="white"/>
<path d="M77.6125 41.1973V40.9976C77.6125 40.2432 77.7284 39.549 77.96 38.915C78.1917 38.2747 78.5324 37.72 78.9821 37.2508C79.4317 36.7817 79.987 36.4172 80.6479 36.1572C81.3088 35.8909 82.0719 35.7578 82.9373 35.7578C83.8094 35.7578 84.5759 35.8909 85.2368 36.1572C85.9045 36.4172 86.4632 36.7817 86.9129 37.2508C87.3626 37.72 87.7033 38.2747 87.9349 38.915C88.1666 39.549 88.2824 40.2432 88.2824 40.9976V41.1973C88.2824 41.9454 88.1666 42.6396 87.9349 43.28C87.7033 43.9139 87.3626 44.4687 86.9129 44.9442C86.4632 45.4133 85.9079 45.7778 85.247 46.0378C84.5861 46.2977 83.823 46.4277 82.9577 46.4277C82.0924 46.4277 81.3259 46.2977 80.6582 46.0378C79.9904 45.7778 79.4317 45.4133 78.9821 44.9442C78.5324 44.4687 78.1917 43.9139 77.96 43.28C77.7284 42.6396 77.6125 41.9454 77.6125 41.1973ZM81.0567 40.9976V41.1973C81.0567 41.5841 81.0874 41.9454 81.1487 42.2815C81.21 42.6175 81.3123 42.9123 81.4553 43.1659C81.5984 43.4131 81.7926 43.6065 82.0379 43.7459C82.2832 43.8854 82.5898 43.9552 82.9577 43.9552C83.3188 43.9552 83.6186 43.8854 83.8571 43.7459C84.1024 43.6065 84.2965 43.4131 84.4396 43.1659C84.5827 42.9123 84.6849 42.6175 84.7462 42.2815C84.8075 41.9454 84.8382 41.5841 84.8382 41.1973V40.9976C84.8382 40.6236 84.8075 40.2717 84.7462 39.9421C84.6849 39.6061 84.5827 39.3113 84.4396 39.0577C84.2965 38.7977 84.1024 38.5949 83.8571 38.4491C83.6118 38.3032 83.3052 38.2303 82.9373 38.2303C82.5761 38.2303 82.2729 38.3032 82.0277 38.4491C81.7892 38.5949 81.5984 38.7977 81.4553 39.0577C81.3123 39.3113 81.21 39.6061 81.1487 39.9421C81.0874 40.2717 81.0567 40.6236 81.0567 40.9976Z" fill="white"/>
<path d="M76.0882 31.1846V46.4272H71.5154V31.1846H76.0882Z" fill="white"/>
<path d="M59.3213 41.1973V40.9976C59.3213 40.2432 59.4371 39.549 59.6688 38.915C59.9004 38.2747 60.2411 37.72 60.6908 37.2508C61.1405 36.7817 61.6958 36.4172 62.3567 36.1572C63.0176 35.8909 63.7807 35.7578 64.646 35.7578C65.5181 35.7578 66.2846 35.8909 66.9455 36.1572C67.6133 36.4172 68.172 36.7817 68.6216 37.2508C69.0713 37.72 69.412 38.2747 69.6437 38.915C69.8753 39.549 69.9911 40.2432 69.9911 40.9976V41.1973C69.9911 41.9454 69.8753 42.6396 69.6437 43.28C69.412 43.9139 69.0713 44.4687 68.6216 44.9442C68.172 45.4133 67.6167 45.7778 66.9558 46.0378C66.2949 46.2977 65.5317 46.4277 64.6664 46.4277C63.8011 46.4277 63.0346 46.2977 62.3669 46.0378C61.6992 45.7778 61.1405 45.4133 60.6908 44.9442C60.2411 44.4687 59.9004 43.9139 59.6688 43.28C59.4371 42.6396 59.3213 41.9454 59.3213 41.1973ZM62.7655 40.9976V41.1973C62.7655 41.5841 62.7961 41.9454 62.8575 42.2815C62.9188 42.6175 63.021 42.9123 63.1641 43.1659C63.3072 43.4131 63.5013 43.6065 63.7466 43.7459C63.9919 43.8854 64.2985 43.9552 64.6664 43.9552C65.0276 43.9552 65.3273 43.8854 65.5658 43.7459C65.8111 43.6065 66.0053 43.4131 66.1484 43.1659C66.2914 42.9123 66.3936 42.6175 66.455 42.2815C66.5163 41.9454 66.5469 41.5841 66.5469 41.1973V40.9976C66.5469 40.6236 66.5163 40.2717 66.455 39.9421C66.3936 39.6061 66.2914 39.3113 66.1484 39.0577C66.0053 38.7977 65.8111 38.5949 65.5658 38.4491C65.3205 38.3032 65.0139 38.2303 64.646 38.2303C64.2849 38.2303 63.9817 38.3032 63.7364 38.4491C63.4979 38.5949 63.3072 38.7977 63.1641 39.0577C63.021 39.3113 62.9188 39.6061 62.8575 39.9421C62.7961 40.2717 62.7655 40.6236 62.7655 40.9976Z" fill="white"/>
<path d="M56.3515 38.5463V46.4277H53.2241V35.9515H56.1474L56.3515 38.5463ZM59.3212 35.874L59.2655 38.9045C59.1418 38.8916 58.9747 38.8755 58.7644 38.8561C58.554 38.8368 58.3777 38.8271 58.2354 38.8271C57.8704 38.8271 57.5549 38.8723 57.2888 38.9626C57.029 39.0466 56.8124 39.1757 56.6392 39.3499C56.4722 39.5178 56.3484 39.7308 56.268 39.989C56.1938 40.2472 56.1597 40.5473 56.1659 40.8894L55.5998 40.5021C55.5998 39.7985 55.6648 39.1595 55.7947 38.585C55.9308 38.0041 56.1226 37.5038 56.3701 37.0843C56.6176 36.6583 56.9176 36.3323 57.2703 36.1064C57.6229 35.874 58.0189 35.7578 58.4581 35.7578C58.6128 35.7578 58.7644 35.7675 58.9129 35.7869C59.0675 35.8062 59.2036 35.8353 59.3212 35.874Z" fill="white"/>
<path d="M51.5174 35.4006V37.7421H44.0786V35.4006H51.5174ZM45.6417 32.709H49.4866V42.6951C49.4866 42.9819 49.5246 43.2054 49.6007 43.3655C49.6767 43.5189 49.806 43.629 49.9886 43.6957C50.1787 43.7557 50.4297 43.7858 50.7416 43.7858C50.9621 43.7858 51.1447 43.7824 51.2892 43.7758C51.4337 43.7624 51.5706 43.7457 51.6999 43.7257V46.1372C51.3729 46.2306 51.0306 46.3006 50.6731 46.3473C50.3156 46.4007 49.9353 46.4274 49.5322 46.4274C48.7107 46.4274 48.0072 46.314 47.4215 46.0872C46.8434 45.8604 46.4023 45.5035 46.098 45.0165C45.7938 44.5295 45.6417 43.8958 45.6417 43.1153V32.709Z" fill="white"/>
<path d="M40.4248 43.3465C40.4248 43.169 40.3538 43.0169 40.2118 42.8901C40.0774 42.7569 39.8383 42.6365 39.4945 42.5287C39.1508 42.4146 38.6689 42.3005 38.0487 42.1864C37.4585 42.0786 36.9018 41.9359 36.3788 41.7584C35.8632 41.5809 35.4112 41.3654 35.0226 41.1118C34.6341 40.8582 34.3277 40.557 34.1036 40.2083C33.8869 39.8597 33.7785 39.4602 33.7785 39.0101C33.7785 38.5727 33.8869 38.1606 34.1036 37.7739C34.3277 37.3808 34.6528 37.0353 35.0787 36.7373C35.512 36.433 36.0388 36.1953 36.659 36.0241C37.2791 35.8466 37.9852 35.7578 38.7772 35.7578C39.8681 35.7578 40.8096 35.9005 41.6016 36.1857C42.3936 36.4647 43.0026 36.8578 43.4285 37.3649C43.8619 37.8658 44.0785 38.4459 44.0785 39.1052H40.3015C40.3015 38.8453 40.2492 38.6234 40.1446 38.4395C40.0475 38.2557 39.8868 38.1162 39.6627 38.0211C39.4385 37.9197 39.1396 37.869 38.766 37.869C38.5045 37.869 38.2654 37.9102 38.0487 37.9926C37.8395 38.075 37.6714 38.1891 37.5444 38.3349C37.4174 38.4808 37.3538 38.6519 37.3538 38.8485C37.3538 38.9879 37.3912 39.1147 37.4659 39.2288C37.5481 39.3366 37.6714 39.4381 37.8358 39.5332C38.0002 39.6219 38.2094 39.7043 38.4634 39.7804C38.7175 39.8501 39.0238 39.9135 39.3825 39.9706C40.1969 40.0974 40.959 40.2781 41.6689 40.5127C42.3787 40.7472 42.954 41.0801 43.3949 41.5112C43.8432 41.9423 44.0673 42.5224 44.0673 43.2514C44.0673 43.7079 43.9441 44.1295 43.6975 44.5162C43.4509 44.8966 43.096 45.2326 42.6327 45.5243C42.1695 45.8095 41.6128 46.0314 40.9628 46.1899C40.3127 46.3484 39.5805 46.4277 38.766 46.4277C37.6079 46.4277 36.6291 46.2533 35.8296 45.9046C35.0301 45.5496 34.4249 45.1058 34.0139 44.5733C33.6104 44.0344 33.4087 43.4892 33.4087 42.9376H36.928C36.9429 43.2546 37.0326 43.5145 37.1969 43.7174C37.3688 43.9203 37.5967 44.0693 37.8806 44.1644C38.1645 44.2595 38.4933 44.307 38.8669 44.307C39.2106 44.307 39.4945 44.2658 39.7187 44.1834C39.9503 44.101 40.1259 43.99 40.2455 43.8505C40.365 43.7047 40.4248 43.5367 40.4248 43.3465Z" fill="white"/>
<path d="M26.8428 34.388L23.3741 46.4272H19.6904L24.9179 31.1846H27.2531L26.8428 34.388ZM29.7154 46.4272L26.237 34.388L25.7875 31.1846H28.1521L33.4088 46.4272H29.7154ZM29.5786 40.7426V43.5797H22.2797V40.7426H29.5786Z" fill="white"/>
<path fill-rule="evenodd" clip-rule="evenodd" d="M11.9569 23.8166C18.5337 23.8166 23.8652 18.4851 23.8652 11.9083C23.8652 5.33153 18.5337 0 11.9569 0C5.38012 0 0.048584 5.33153 0.048584 11.9083C0.048584 18.4851 5.38012 23.8166 11.9569 23.8166ZM14.5511 15.4518C14.6332 15.6734 14.6742 15.9237 14.6742 16.2027C14.6742 16.5228 14.5962 16.8183 14.4403 17.0891C14.2844 17.3517 14.0382 17.5651 13.7017 17.7292C13.3652 17.8852 12.922 17.9631 12.3721 17.9631C11.8633 17.9631 11.4119 17.918 11.018 17.8277C10.624 17.7292 10.2917 17.5733 10.0208 17.3599C9.74999 17.1383 9.54482 16.847 9.4053 16.4859C9.26578 16.1248 9.19602 15.6816 9.19602 15.1563H4.86271C4.86271 16.215 5.0761 17.1301 5.50286 17.9016C5.93783 18.6648 6.51643 19.2927 7.23865 19.7851C7.96086 20.2693 8.76515 20.6304 9.65151 20.8684C10.5461 21.0982 11.4529 21.2131 12.3721 21.2131C13.3734 21.2131 14.2803 21.1023 15.0928 20.8807C15.9053 20.6591 16.6028 20.335 17.1855 19.9082C17.7682 19.4732 18.2155 18.9439 18.5274 18.3201C18.8393 17.6964 18.9952 16.9824 18.9952 16.1781C18.9952 15.4231 18.8598 14.746 18.5889 14.1469C18.3263 13.5478 17.9365 13.0143 17.4194 12.5465C16.9106 12.0705 16.2828 11.6479 15.5359 11.2785C14.7973 10.901 13.952 10.5604 13 10.2568C12.4911 10.0926 12.0315 9.92438 11.6212 9.75203C11.219 9.57969 10.8744 9.39913 10.5871 9.21037C10.3081 9.02161 10.0906 8.82054 9.93465 8.60715C9.78692 8.38557 9.71306 8.13936 9.71306 7.86852C9.71306 7.54024 9.80744 7.24069 9.9962 6.96986C10.185 6.69082 10.464 6.46923 10.8333 6.30509C11.2026 6.14095 11.6581 6.05888 12.1998 6.05888C12.7579 6.05888 13.2216 6.15736 13.5909 6.35433C13.9602 6.5513 14.2351 6.82213 14.4157 7.16683C14.6044 7.51152 14.6988 7.90956 14.6988 8.36094H18.9952C18.9952 7.22838 18.7079 6.24764 18.1335 5.41873C17.5672 4.58162 16.7793 3.93737 15.7698 3.48598C14.7686 3.02639 13.6114 2.7966 12.2983 2.7966C11.3052 2.7966 10.3901 2.9156 9.55302 3.1536C8.71591 3.3834 7.98548 3.71988 7.36175 4.16306C6.74622 4.59803 6.26611 5.12738 5.92142 5.75112C5.57673 6.36664 5.40438 7.06013 5.40438 7.83159C5.40438 8.63588 5.57262 9.34168 5.90911 9.949C6.2456 10.5481 6.70109 11.0734 7.27558 11.5247C7.85007 11.9679 8.50253 12.3578 9.23295 12.6942C9.96337 13.0225 10.7225 13.318 11.5104 13.5806C12.1834 13.8022 12.725 14.0156 13.1354 14.2207C13.5539 14.4177 13.874 14.6147 14.0956 14.8117C14.3172 15.0086 14.469 15.222 14.5511 15.4518Z" fill="white"/>
<path d="M63.9972 16.024C63.9972 15.7942 63.9192 15.5972 63.7633 15.4331C63.6155 15.2607 63.3529 15.1048 62.9754 14.9653C62.5979 14.8176 62.0685 14.6698 61.3873 14.5221C60.739 14.3826 60.1276 14.1979 59.5531 13.9681C58.9868 13.7383 58.4903 13.4593 58.0635 13.131C57.6367 12.8027 57.3002 12.4129 57.054 11.9615C56.816 11.5101 56.697 10.9931 56.697 10.4104C56.697 9.84411 56.816 9.31065 57.054 8.81002C57.3002 8.30119 57.6572 7.85391 58.125 7.46818C58.601 7.07424 59.1796 6.76648 59.8608 6.54489C60.542 6.31509 61.3176 6.2002 62.1875 6.2002C63.3857 6.2002 64.4198 6.38485 65.2898 6.75417C66.1597 7.11528 66.8286 7.62411 67.2964 8.28067C67.7724 8.92902 68.0104 9.67997 68.0104 10.5335H63.8617C63.8617 10.197 63.8043 9.90976 63.6894 9.67176C63.5827 9.43376 63.4063 9.2532 63.16 9.1301C62.9138 8.99878 62.5856 8.93313 62.1752 8.93313C61.888 8.93313 61.6253 8.98647 61.3873 9.09316C61.1575 9.19986 60.9729 9.34758 60.8334 9.53634C60.6938 9.7251 60.6241 9.94669 60.6241 10.2011C60.6241 10.3817 60.6651 10.5458 60.7472 10.6935C60.8375 10.8331 60.9729 10.9644 61.1534 11.0875C61.334 11.2024 61.5638 11.3091 61.8428 11.4075C62.1219 11.4978 62.4583 11.5799 62.8523 11.6538C63.7468 11.8179 64.584 12.0518 65.3636 12.3554C66.1433 12.6591 66.7752 13.09 67.2594 13.6481C67.7519 14.2061 67.9981 14.9571 67.9981 15.9009C67.9981 16.4918 67.8627 17.0375 67.5918 17.5382C67.321 18.0306 66.9312 18.4656 66.4223 18.8431C65.9135 19.2124 65.3021 19.4996 64.5881 19.7048C63.8741 19.91 63.0698 20.0126 62.1752 20.0126C60.9031 20.0126 59.828 19.7869 58.9498 19.3355C58.0717 18.8759 57.4069 18.3014 56.9555 17.612C56.5124 16.9144 56.2908 16.2086 56.2908 15.4946H60.1563C60.1727 15.905 60.2712 16.2415 60.4517 16.5041C60.6405 16.7667 60.8908 16.9596 61.2027 17.0827C61.5145 17.2058 61.8756 17.2673 62.286 17.2673C62.6635 17.2673 62.9754 17.214 63.2216 17.1073C63.476 17.0006 63.6689 16.857 63.8002 16.6764C63.9315 16.4877 63.9972 16.2702 63.9972 16.024Z" fill="white"/>
<path d="M51.6496 9.74562V19.7664H47.501V6.44641H51.3788L51.6496 9.74562ZM55.589 6.34792L55.5151 10.2011C55.351 10.1847 55.1294 10.1642 54.8504 10.1396C54.5713 10.1149 54.3374 10.1026 54.1487 10.1026C53.6644 10.1026 53.2459 10.1601 52.893 10.275C52.5483 10.3817 52.261 10.5458 52.0312 10.7674C51.8097 10.9808 51.6455 11.2516 51.5388 11.5799C51.4403 11.9082 51.3952 12.2898 51.4034 12.7248L50.6525 12.2323C50.6525 11.3378 50.7386 10.5253 50.911 9.79486C51.0915 9.05623 51.346 8.42019 51.6742 7.88673C52.0025 7.34507 52.4006 6.93062 52.8684 6.64337C53.3362 6.34792 53.8614 6.2002 54.4441 6.2002C54.6493 6.2002 54.8504 6.21251 55.0473 6.23713C55.2525 6.26175 55.4331 6.29868 55.589 6.34792Z" fill="white"/>
<path d="M40.9888 16.4179V10.9274C40.9888 10.5499 40.9354 10.2257 40.8287 9.9549C40.722 9.68407 40.5538 9.47479 40.324 9.32706C40.0942 9.17113 39.7864 9.09316 39.4007 9.09316C39.0888 9.09316 38.8221 9.14651 38.6005 9.2532C38.3789 9.35989 38.2107 9.51993 38.0958 9.73331C37.9809 9.94669 37.9234 10.2175 37.9234 10.5458H33.7748C33.7748 9.93028 33.9102 9.35989 34.1811 8.83464C34.4601 8.30119 34.854 7.83749 35.3629 7.44356C35.8799 7.04962 36.4954 6.74596 37.2094 6.53258C37.9317 6.31099 38.7359 6.2002 39.6223 6.2002C40.681 6.2002 41.6248 6.37665 42.4537 6.72955C43.2908 7.08245 43.9515 7.6118 44.4357 8.3176C44.9199 9.0152 45.162 9.89335 45.162 10.9521V16.4056C45.162 17.2755 45.2113 17.9362 45.3098 18.3876C45.4082 18.8308 45.5478 19.2206 45.7283 19.5571V19.7664H41.5674C41.3704 19.356 41.2227 18.8554 41.1242 18.2645C41.0339 17.6654 40.9888 17.0499 40.9888 16.4179ZM41.4935 11.6291L41.5181 13.845H39.6839C39.2981 13.845 38.9698 13.8984 38.699 14.0051C38.4364 14.1117 38.223 14.2595 38.0589 14.4482C37.9029 14.6288 37.788 14.834 37.7142 15.0638C37.6485 15.2936 37.6157 15.5357 37.6157 15.7901C37.6157 16.0363 37.6731 16.2579 37.788 16.4548C37.9111 16.6436 38.0753 16.7913 38.2805 16.898C38.4856 17.0047 38.7154 17.0581 38.9698 17.0581C39.4294 17.0581 39.8193 16.9719 40.1393 16.7995C40.4676 16.619 40.7179 16.4015 40.8903 16.1471C41.0626 15.8927 41.1488 15.6547 41.1488 15.4331L42.0598 17.1319C41.8956 17.4602 41.7069 17.7926 41.4935 18.1291C41.2883 18.4656 41.0298 18.7774 40.7179 19.0647C40.4143 19.3437 40.0409 19.5735 39.5977 19.7541C39.1545 19.9264 38.6169 20.0126 37.985 20.0126C37.1643 20.0126 36.4093 19.8443 35.7199 19.5079C35.0387 19.1714 34.4929 18.7036 34.0826 18.1045C33.6722 17.4971 33.467 16.7995 33.467 16.0117C33.467 15.3223 33.5901 14.7068 33.8364 14.1651C34.0908 13.6234 34.4724 13.1638 34.9812 12.7863C35.4901 12.4088 36.1384 12.1216 36.9263 11.9246C37.7142 11.7276 38.6416 11.6291 39.7085 11.6291H41.4935Z" fill="white"/>
<path d="M32.4207 6.44629V9.32695H24.3943V6.44629H32.4207ZM26.0808 3.13477H30.2295V15.4207C30.2295 15.7736 30.2705 16.0485 30.3526 16.2455C30.4346 16.4342 30.5742 16.5696 30.7711 16.6517C30.9763 16.7256 31.2471 16.7625 31.5836 16.7625C31.8216 16.7625 32.0186 16.7584 32.1745 16.7502C32.3305 16.7338 32.4782 16.7133 32.6177 16.6886V19.6555C32.2648 19.7704 31.8955 19.8565 31.5098 19.914C31.124 19.9796 30.7137 20.0125 30.2787 20.0125C29.3924 20.0125 28.6332 19.873 28.0013 19.5939C27.3775 19.3149 26.9015 18.8758 26.5732 18.2767C26.245 17.6776 26.0808 16.8979 26.0808 15.9377V3.13477Z" fill="white"/>
</svg>
