<svg width="17" height="17" viewBox="0 0 17 17" fill="none" xmlns="http://www.w3.org/2000/svg">
<path d="M15.2382 3.97592V6.92036C15.2382 7.01798 15.1987 7.11159 15.1284 7.18062C15.0581 7.24964 14.9627 7.28842 14.8632 7.28842H11.8632C11.7638 7.28842 11.6684 7.24964 11.5981 7.18062C11.5278 7.11159 11.4882 7.01798 11.4882 6.92036C11.4882 6.82275 11.5278 6.72913 11.5981 6.66011C11.6684 6.59108 11.7638 6.55231 11.8632 6.55231H13.8976L11.9989 4.84698C11.9951 4.8433 11.9914 4.83901 11.987 4.83533C11.2746 4.13653 10.3682 3.65924 9.38102 3.4631C8.39385 3.26695 7.36968 3.36065 6.43644 3.73247C5.50321 4.1043 4.70229 4.73777 4.13374 5.55376C3.5652 6.36974 3.25422 7.33206 3.23967 8.32051C3.22512 9.30895 3.50763 10.2797 4.05192 11.1115C4.59621 11.9432 5.37815 12.5991 6.30005 12.9973C7.22194 13.3954 8.24293 13.5181 9.23546 13.35C10.228 13.182 11.1481 12.7306 11.8807 12.0523C11.9531 11.9853 12.0496 11.9492 12.1491 11.952C12.2485 11.9548 12.3428 11.9963 12.4111 12.0673C12.4794 12.1383 12.5161 12.2331 12.5132 12.3307C12.5104 12.4283 12.4681 12.5208 12.3957 12.5878C11.3069 13.6002 9.86306 14.1627 8.36325 14.1588H8.28325C7.32122 14.1455 6.37724 13.9005 5.53426 13.4454C4.69127 12.9902 3.97507 12.3388 3.4486 11.5484C2.92212 10.7581 2.60148 9.85287 2.51484 8.9124C2.4282 7.97194 2.57822 7.02498 2.95171 6.15473C3.3252 5.28448 3.91074 4.51758 4.65688 3.92141C5.40301 3.32523 6.28691 2.91804 7.2309 2.7356C8.1749 2.55315 9.1501 2.60105 10.0708 2.87507C10.9915 3.1491 11.8296 3.64087 12.5114 4.30717L14.4882 6.08304V3.97592C14.4882 3.8783 14.5278 3.78469 14.5981 3.71566C14.6684 3.64664 14.7638 3.60786 14.8632 3.60786C14.9627 3.60786 15.0581 3.64664 15.1284 3.71566C15.1987 3.78469 15.2382 3.8783 15.2382 3.97592Z" fill="#BEBEBE"/>
</svg>
