<svg width="4" height="22" viewBox="0 0 4 22" fill="none" xmlns="http://www.w3.org/2000/svg">
<path d="M1.07779e-06 2.5C1.07779e-06 2.10444 0.117299 1.71776 0.337062 1.38886C0.556825 1.05996 0.869182 0.803617 1.23463 0.652242C1.60009 0.500867 2.00222 0.46126 2.39018 0.53843C2.77814 0.615601 3.13451 0.806082 3.41421 1.08579C3.69392 1.36549 3.8844 1.72186 3.96157 2.10982C4.03874 2.49778 3.99914 2.89992 3.84776 3.26537C3.69639 3.63082 3.44004 3.94318 3.11114 4.16294C2.78224 4.3827 2.39556 4.5 2 4.5C1.46957 4.5 0.960861 4.28929 0.585788 3.91421C0.210715 3.53914 1.07779e-06 3.03043 1.07779e-06 2.5ZM2 9C1.60444 9 1.21776 9.1173 0.888861 9.33706C0.559963 9.55682 0.303617 9.86918 0.152242 10.2346C0.000866562 10.6001 -0.0387401 11.0022 0.0384303 11.3902C0.115601 11.7781 0.306083 12.1345 0.585788 12.4142C0.865493 12.6939 1.22186 12.8844 1.60982 12.9616C1.99778 13.0387 2.39992 12.9991 2.76537 12.8478C3.13082 12.6964 3.44318 12.44 3.66294 12.1111C3.8827 11.7822 4 11.3956 4 11C4 10.4696 3.78929 9.96086 3.41421 9.58579C3.03914 9.21072 2.53043 9 2 9ZM2 17.5C1.60444 17.5 1.21776 17.6173 0.888861 17.8371C0.559963 18.0568 0.303617 18.3692 0.152242 18.7346C0.000866562 19.1001 -0.0387401 19.5022 0.0384303 19.8902C0.115601 20.2781 0.306083 20.6345 0.585788 20.9142C0.865493 21.1939 1.22186 21.3844 1.60982 21.4616C1.99778 21.5387 2.39992 21.4991 2.76537 21.3478C3.13082 21.1964 3.44318 20.94 3.66294 20.6111C3.8827 20.2822 4 19.8956 4 19.5C4 18.9696 3.78929 18.4609 3.41421 18.0858C3.03914 17.7107 2.53043 17.5 2 17.5Z" fill="#F76746"/>
</svg>
