<svg width="16" height="16" viewBox="0 0 16 16" fill="none" xmlns="http://www.w3.org/2000/svg">
<path d="M6.875 13.5C6.875 13.5995 6.83549 13.6948 6.76516 13.7652C6.69484 13.8355 6.59946 13.875 6.5 13.875H3C2.76794 13.875 2.54538 13.7828 2.38128 13.6187C2.21719 13.4546 2.125 13.2321 2.125 13V3C2.125 2.76794 2.21719 2.54538 2.38128 2.38128C2.54538 2.21719 2.76794 2.125 3 2.125H6.5C6.59946 2.125 6.69484 2.16451 6.76516 2.23483C6.83549 2.30516 6.875 2.40054 6.875 2.5C6.875 2.59946 6.83549 2.69484 6.76516 2.76517C6.69484 2.83549 6.59946 2.875 6.5 2.875H3C2.96685 2.875 2.93505 2.88817 2.91161 2.91161C2.88817 2.93505 2.875 2.96685 2.875 3V13C2.875 13.0332 2.88817 13.0649 2.91161 13.0884C2.93505 13.1118 2.96685 13.125 3 13.125H6.5C6.59946 13.125 6.69484 13.1645 6.76516 13.2348C6.83549 13.3052 6.875 13.4005 6.875 13.5ZM13.765 7.735L11.265 5.235C11.1939 5.16876 11.0999 5.1327 11.0027 5.13441C10.9056 5.13613 10.8129 5.17548 10.7442 5.24419C10.6755 5.3129 10.6361 5.40559 10.6344 5.50274C10.6327 5.59989 10.6688 5.69391 10.735 5.765L12.5944 7.625H6.5C6.40054 7.625 6.30516 7.66451 6.23484 7.73484C6.16451 7.80516 6.125 7.90054 6.125 8C6.125 8.09946 6.16451 8.19484 6.23484 8.26517C6.30516 8.33549 6.40054 8.375 6.5 8.375H12.5944L10.735 10.235C10.6982 10.2693 10.6686 10.3107 10.6481 10.3567C10.6276 10.4027 10.6166 10.4524 10.6157 10.5027C10.6148 10.5531 10.6241 10.6031 10.6429 10.6498C10.6618 10.6965 10.6899 10.7389 10.7255 10.7745C10.7611 10.8101 10.8035 10.8382 10.8502 10.8571C10.8969 10.8759 10.9469 10.8852 10.9973 10.8843C11.0476 10.8834 11.0973 10.8724 11.1433 10.8519C11.1893 10.8314 11.2307 10.8018 11.265 10.765L13.765 8.265C13.8352 8.19469 13.8747 8.09938 13.8747 8C13.8747 7.90062 13.8352 7.80531 13.765 7.735Z" fill="#FF3F3F"/>
</svg>
