<svg width="205" height="18" viewBox="0 0 205 18" fill="none" xmlns="http://www.w3.org/2000/svg">
<path d="M195.168 17.9984C194.597 17.9984 194.014 17.9096 193.418 17.7321C192.834 17.5672 192.365 17.3453 192.01 17.0663L193.437 14.1176C193.652 14.2825 193.893 14.4157 194.16 14.5171C194.439 14.6186 194.705 14.6693 194.958 14.6693C195.339 14.6693 195.631 14.5869 195.834 14.422C196.036 14.2698 196.201 14.0352 196.328 13.7182L196.766 12.6148L197.07 12.1963L200.399 3.71191H204.47L200.19 14.3269C199.809 15.2781 199.366 16.02 198.858 16.5526C198.364 17.0853 197.806 17.4594 197.184 17.675C196.575 17.8906 195.903 17.9984 195.168 17.9984ZM196.176 14.5932L191.648 3.71191H196.062L199.182 11.8158L196.176 14.5932Z" fill="white"/>
<path d="M184.653 18.0001C183.625 18.0001 182.662 17.8924 181.761 17.6768C180.861 17.4612 180.087 17.1378 179.44 16.7066L180.886 13.777C181.292 14.094 181.805 14.3413 182.427 14.5189C183.061 14.7091 183.657 14.8042 184.215 14.8042C185.103 14.8042 185.737 14.614 186.117 14.2335C186.498 13.8658 186.688 13.3331 186.688 12.6356V11.7605L186.878 8.52656L186.897 5.2926V3.71367H190.987V12.0459C190.987 14.0623 190.429 15.5588 189.313 16.5354C188.197 17.5119 186.644 18.0001 184.653 18.0001ZM183.816 13.5487C182.941 13.5487 182.123 13.3458 181.362 12.94C180.601 12.5214 179.986 11.9381 179.516 11.1898C179.047 10.4416 178.812 9.55382 178.812 8.52656C178.812 7.4993 179.047 6.61155 179.516 5.8633C179.986 5.11505 180.601 4.53801 181.362 4.13218C182.123 3.72635 182.941 3.52344 183.816 3.52344C184.716 3.52344 185.452 3.70099 186.022 4.05609C186.606 4.41119 187.037 4.96287 187.316 5.71111C187.595 6.44668 187.734 7.38516 187.734 8.52656C187.734 9.66796 187.595 10.6128 187.316 11.361C187.037 12.0966 186.606 12.6483 186.022 13.0161C185.452 13.3712 184.716 13.5487 183.816 13.5487ZM184.957 10.2006C185.299 10.2006 185.604 10.1309 185.87 9.99135C186.136 9.85185 186.346 9.65527 186.498 9.40163C186.65 9.14799 186.726 8.8563 186.726 8.52656C186.726 8.18414 186.65 7.89245 186.498 7.65149C186.346 7.39785 186.136 7.20761 185.87 7.08079C185.604 6.94129 185.299 6.87153 184.957 6.87153C184.627 6.87153 184.323 6.94129 184.044 7.08079C183.778 7.20761 183.562 7.39785 183.397 7.65149C183.245 7.89245 183.169 8.18414 183.169 8.52656C183.169 8.8563 183.245 9.14799 183.397 9.40163C183.562 9.65527 183.778 9.85185 184.044 9.99135C184.323 10.1309 184.627 10.2006 184.957 10.2006Z" fill="white"/>
<path d="M171.965 14.3096C170.786 14.3096 169.74 14.0814 168.827 13.6248C167.926 13.1556 167.216 12.5151 166.696 11.7034C166.176 10.8918 165.916 9.95965 165.916 8.90703C165.916 7.85441 166.176 6.92226 166.696 6.1106C167.216 5.29894 167.926 4.66483 168.827 4.20828C169.74 3.75172 170.786 3.52344 171.965 3.52344C173.145 3.52344 174.191 3.75172 175.104 4.20828C176.017 4.66483 176.728 5.29894 177.235 6.1106C177.755 6.92226 178.015 7.85441 178.015 8.90703C178.015 9.95965 177.755 10.8918 177.235 11.7034C176.728 12.5151 176.017 13.1556 175.104 13.6248C174.191 14.0814 173.145 14.3096 171.965 14.3096ZM171.965 10.9615C172.282 10.9615 172.568 10.8854 172.821 10.7333C173.075 10.5811 173.278 10.3528 173.43 10.0484C173.582 9.73137 173.658 9.3509 173.658 8.90703C173.658 8.45047 173.582 8.07634 173.43 7.78465C173.278 7.48028 173.075 7.252 172.821 7.09981C172.568 6.94763 172.282 6.87154 171.965 6.87154C171.648 6.87154 171.363 6.94763 171.109 7.09981C170.856 7.252 170.653 7.48028 170.501 7.78465C170.348 8.07634 170.272 8.45047 170.272 8.90703C170.272 9.3509 170.348 9.73137 170.501 10.0484C170.653 10.3528 170.856 10.5811 171.109 10.7333C171.363 10.8854 171.648 10.9615 171.965 10.9615Z" fill="white"/>
<path d="M160.264 14.1153V0H164.563V14.1153H160.264Z" fill="white"/>
<path d="M152.87 14.3096C151.69 14.3096 150.644 14.0814 149.731 13.6248C148.83 13.1556 148.12 12.5151 147.6 11.7034C147.08 10.8918 146.82 9.95965 146.82 8.90703C146.82 7.85441 147.08 6.92226 147.6 6.1106C148.12 5.29894 148.83 4.66483 149.731 4.20828C150.644 3.75172 151.69 3.52344 152.87 3.52344C154.049 3.52344 155.095 3.75172 156.009 4.20828C156.922 4.66483 157.632 5.29894 158.139 6.1106C158.659 6.92226 158.919 7.85441 158.919 8.90703C158.919 9.95965 158.659 10.8918 158.139 11.7034C157.632 12.5151 156.922 13.1556 156.009 13.6248C155.095 14.0814 154.049 14.3096 152.87 14.3096ZM152.87 10.9615C153.187 10.9615 153.472 10.8854 153.726 10.7333C153.979 10.5811 154.182 10.3528 154.335 10.0484C154.487 9.73137 154.563 9.3509 154.563 8.90703C154.563 8.45047 154.487 8.07634 154.335 7.78465C154.182 7.48028 153.979 7.252 153.726 7.09981C153.472 6.94763 153.187 6.87154 152.87 6.87154C152.553 6.87154 152.267 6.94763 152.014 7.09981C151.76 7.252 151.557 7.48028 151.405 7.78465C151.253 8.07634 151.177 8.45047 151.177 8.90703C151.177 9.3509 151.253 9.73137 151.405 10.0484C151.557 10.3528 151.76 10.5811 152.014 10.7333C152.267 10.8854 152.553 10.9615 152.87 10.9615Z" fill="white"/>
<path d="M138.789 14.1194V3.71367H142.879V6.85251L142.213 5.95842C142.53 5.14676 143.038 4.53801 143.735 4.13218C144.433 3.72635 145.27 3.52344 146.246 3.52344V7.32809C146.056 7.30273 145.885 7.28371 145.733 7.27102C145.593 7.25834 145.447 7.252 145.295 7.252C144.648 7.252 144.116 7.42321 143.697 7.76563C143.291 8.09537 143.088 8.6724 143.088 9.49675V14.1194H138.789Z" fill="white"/>
<path d="M135.059 14.3059C133.626 14.3059 132.51 13.9635 131.711 13.2787C130.912 12.5812 130.513 11.5159 130.513 10.0828V1.37012H134.812V10.0447C134.812 10.3618 134.894 10.6091 135.059 10.7866C135.237 10.9642 135.452 11.053 135.706 11.053C136.074 11.053 136.397 10.9578 136.676 10.7676L137.703 13.7543C137.374 13.9445 136.974 14.084 136.505 14.1728C136.048 14.2616 135.567 14.3059 135.059 14.3059ZM129.086 7.41952V4.28068H136.943V7.41952H129.086Z" fill="white"/>
<path d="M123.356 14.3096C122.469 14.3096 121.594 14.2145 120.731 14.0243C119.869 13.8341 119.171 13.5868 118.639 13.2824L119.818 10.4479C120.313 10.7396 120.883 10.9679 121.53 11.1328C122.19 11.2976 122.83 11.3801 123.452 11.3801C123.972 11.3801 124.32 11.3357 124.498 11.2469C124.688 11.1581 124.783 11.0376 124.783 10.8854C124.783 10.7333 124.675 10.6255 124.46 10.5621C124.244 10.486 123.959 10.4289 123.604 10.3908C123.249 10.3528 122.855 10.3084 122.424 10.2577C122.006 10.1943 121.581 10.1055 121.15 9.99135C120.719 9.87721 120.325 9.706 119.97 9.47773C119.615 9.24945 119.33 8.94507 119.114 8.56461C118.899 8.17146 118.791 7.67685 118.791 7.08079C118.791 6.42132 118.987 5.82525 119.381 5.2926C119.786 4.75995 120.382 4.3351 121.169 4.01804C121.968 3.68831 122.951 3.52344 124.117 3.52344C124.878 3.52344 125.639 3.59319 126.4 3.73269C127.161 3.8722 127.814 4.0878 128.36 4.37949L127.18 7.21396C126.647 6.92226 126.121 6.72569 125.601 6.62423C125.094 6.51009 124.618 6.45302 124.174 6.45302C123.629 6.45302 123.255 6.50375 123.052 6.60521C122.862 6.70667 122.767 6.82081 122.767 6.94763C122.767 7.09981 122.875 7.21395 123.09 7.29005C123.306 7.36614 123.591 7.42321 123.946 7.46126C124.301 7.4993 124.688 7.55003 125.107 7.61344C125.538 7.66417 125.963 7.75295 126.381 7.87977C126.812 7.99391 127.205 8.16512 127.561 8.3934C127.916 8.62168 128.201 8.93239 128.417 9.32554C128.632 9.706 128.74 10.1943 128.74 10.7903C128.74 11.4118 128.543 11.9951 128.15 12.5405C127.757 13.0731 127.161 13.5043 126.362 13.8341C125.563 14.1511 124.561 14.3096 123.356 14.3096Z" fill="white"/>
<path d="M102.738 14.1171L108.559 0.800781H112.973L118.794 14.1171H114.152L109.853 2.93139H111.603L107.304 14.1171H102.738ZM106.201 11.7962L107.342 8.56228H113.467L114.609 11.7962H106.201Z" fill="white"/>
<path d="M89.5007 14.3055C88.6002 14.3055 87.7632 14.0899 86.9896 13.6587C86.2287 13.2148 85.6199 12.5934 85.1634 11.7944C84.7068 10.9828 84.4785 10.0189 84.4785 8.90289C84.4785 7.78686 84.7068 6.82936 85.1634 6.03038C85.6199 5.21872 86.2287 4.59729 86.9896 4.1661C87.7632 3.7349 88.6002 3.51931 89.5007 3.51931C90.4138 3.51931 91.162 3.71588 91.7454 4.10903C92.3288 4.48949 92.76 5.07922 93.039 5.87819C93.318 6.66449 93.4575 7.67272 93.4575 8.90289C93.4575 10.1457 93.3243 11.1667 93.058 11.9656C92.8044 12.7646 92.3859 13.3543 91.8025 13.7348C91.2318 14.1153 90.4645 14.3055 89.5007 14.3055ZM90.5279 10.9574C90.845 10.9574 91.1303 10.8813 91.384 10.7291C91.6376 10.5769 91.8405 10.3487 91.9927 10.0443C92.1449 9.72724 92.221 9.34677 92.221 8.90289C92.221 8.44633 92.1449 8.07221 91.9927 7.78052C91.8405 7.47615 91.6376 7.24787 91.384 7.09568C91.1303 6.9435 90.845 6.8674 90.5279 6.8674C90.2109 6.8674 89.9255 6.9435 89.6719 7.09568C89.4182 7.24787 89.2153 7.47615 89.0631 7.78052C88.9109 8.07221 88.8348 8.44633 88.8348 8.90289C88.8348 9.34677 88.9109 9.72724 89.0631 10.0443C89.2153 10.3487 89.4182 10.5769 89.6719 10.7291C89.9255 10.8813 90.2109 10.9574 90.5279 10.9574ZM92.3542 14.1153V12.7075L92.3351 8.90289L92.1449 5.09824V0H96.4442V14.1153H92.3542Z" fill="white"/>
<path d="M78.6175 3.52344C79.4165 3.52344 80.1394 3.68831 80.7862 4.01804C81.433 4.3351 81.9403 4.83604 82.308 5.52088C82.6885 6.20572 82.8787 7.09347 82.8787 8.18414V14.1194H78.5795V8.92605C78.5795 8.27926 78.4653 7.8227 78.2371 7.55637C78.0088 7.27736 77.6981 7.13786 77.3049 7.13786C77.0132 7.13786 76.7406 7.20761 76.4869 7.34712C76.246 7.47394 76.0494 7.68954 75.8972 7.99391C75.7577 8.29828 75.6879 8.71045 75.6879 9.23042V14.1194H71.3887V3.71367H75.4787V6.7574L74.6607 5.88232C75.0665 5.09603 75.6118 4.50631 76.2967 4.11316C76.9942 3.72001 77.7678 3.52344 78.6175 3.52344Z" fill="white"/>
<path d="M65.5408 14.1194V12.2741L65.2364 11.7795V8.27926C65.2364 7.77197 65.0779 7.38516 64.7609 7.11884C64.4565 6.85251 63.9555 6.71935 63.258 6.71935C62.7888 6.71935 62.3132 6.79544 61.8313 6.94763C61.3493 7.08713 60.9372 7.28371 60.5947 7.53735L59.2251 4.70288C59.8338 4.32242 60.563 4.03073 61.4127 3.82781C62.2625 3.6249 63.0931 3.52344 63.9048 3.52344C65.693 3.52344 67.0753 3.92293 68.0519 4.7219C69.0411 5.52088 69.5357 6.7891 69.5357 8.52656V14.1194H65.5408ZM62.5922 14.3096C61.7425 14.3096 61.0323 14.1638 60.4616 13.8721C59.8909 13.5804 59.4597 13.1936 59.168 12.7117C58.8763 12.2171 58.7305 11.6717 58.7305 11.0757C58.7305 10.4035 58.9017 9.83283 59.2441 9.36359C59.5865 8.89434 60.1065 8.53924 60.804 8.29828C61.5142 8.05732 62.4083 7.93684 63.4863 7.93684H65.6549V10.0104H64.1711C63.7146 10.0104 63.3785 10.0865 63.1629 10.2387C62.96 10.3782 62.8585 10.5938 62.8585 10.8854C62.8585 11.1264 62.9473 11.3293 63.1248 11.4942C63.3151 11.6464 63.5687 11.7225 63.8858 11.7225C64.1775 11.7225 64.4438 11.6464 64.6848 11.4942C64.9384 11.3293 65.1223 11.0757 65.2364 10.7333L65.7881 12.0078C65.6232 12.7814 65.2745 13.3585 64.7418 13.7389C64.2092 14.1194 63.4926 14.3096 62.5922 14.3096Z" fill="white"/>
<path d="M46.8584 14.3096C45.9706 14.3096 45.0956 14.2145 44.2332 14.0243C43.3708 13.8341 42.6733 13.5868 42.1406 13.2824L43.3201 10.4479C43.8147 10.7396 44.3854 10.9679 45.0322 11.1328C45.6916 11.2976 46.3321 11.3801 46.9535 11.3801C47.4735 11.3801 47.8222 11.3357 47.9998 11.2469C48.19 11.1581 48.2851 11.0376 48.2851 10.8854C48.2851 10.7333 48.1773 10.6255 47.9618 10.5621C47.7462 10.486 47.4608 10.4289 47.1057 10.3908C46.7506 10.3528 46.3575 10.3084 45.9263 10.2577C45.5077 10.1943 45.0829 10.1055 44.6517 9.99135C44.2205 9.87721 43.8274 9.706 43.4723 9.47773C43.1172 9.24945 42.8318 8.94507 42.6162 8.56461C42.4006 8.17146 42.2928 7.67685 42.2928 7.08079C42.2928 6.42132 42.4894 5.82525 42.8825 5.2926C43.2884 4.75995 43.8844 4.3351 44.6707 4.01804C45.4697 3.68831 46.4526 3.52344 47.6193 3.52344C48.3803 3.52344 49.1412 3.59319 49.9021 3.73269C50.6631 3.8722 51.3162 4.0878 51.8615 4.37949L50.6821 7.21396C50.1494 6.92226 49.6231 6.72569 49.1031 6.62423C48.5959 6.51009 48.1203 6.45302 47.6764 6.45302C47.1311 6.45302 46.7569 6.50375 46.554 6.60521C46.3638 6.70667 46.2687 6.82081 46.2687 6.94763C46.2687 7.09981 46.3765 7.21395 46.5921 7.29005C46.8077 7.36614 47.093 7.42321 47.4481 7.46126C47.8032 7.4993 48.19 7.55003 48.6085 7.61344C49.0397 7.66417 49.4646 7.75295 49.8831 7.87977C50.3143 7.99391 50.7074 8.16512 51.0625 8.3934C51.4176 8.62168 51.703 8.93239 51.9186 9.32554C52.1342 9.706 52.242 10.1943 52.242 10.7903C52.242 11.4118 52.0454 11.9951 51.6523 12.5405C51.2591 13.0731 50.6631 13.5043 49.8641 13.8341C49.0651 14.1511 48.0632 14.3096 46.8584 14.3096Z" fill="white"/>
<path d="M34.1055 14.1194V3.71367H38.1955V6.85251L37.5297 5.95842C37.8467 5.14676 38.354 4.53801 39.0515 4.13218C39.749 3.72635 40.5861 3.52344 41.5626 3.52344V7.32809C41.3724 7.30273 41.2012 7.28371 41.049 7.27102C40.9095 7.25834 40.7636 7.252 40.6114 7.252C39.9646 7.252 39.432 7.42321 39.0135 7.76563C38.6076 8.09537 38.4047 8.6724 38.4047 9.49675V14.1194H34.1055Z" fill="white"/>
<path d="M28.2556 14.1194V12.2741L27.9513 11.7795V8.27926C27.9513 7.77197 27.7927 7.38516 27.4757 7.11884C27.1713 6.85251 26.6704 6.71935 25.9729 6.71935C25.5036 6.71935 25.028 6.79544 24.5461 6.94763C24.0642 7.08713 23.652 7.28371 23.3096 7.53735L21.9399 4.70288C22.5487 4.32242 23.2779 4.03073 24.1276 3.82781C24.9773 3.6249 25.808 3.52344 26.6196 3.52344C28.4078 3.52344 29.7902 3.92293 30.7667 4.7219C31.7559 5.52088 32.2505 6.7891 32.2505 8.52656V14.1194H28.2556ZM25.307 14.3096C24.4573 14.3096 23.7471 14.1638 23.1764 13.8721C22.6057 13.5804 22.1745 13.1936 21.8828 12.7117C21.5912 12.2171 21.4453 11.6717 21.4453 11.0757C21.4453 10.4035 21.6165 9.83283 21.9589 9.36359C22.3014 8.89434 22.8213 8.53924 23.5188 8.29828C24.2291 8.05732 25.1231 7.93684 26.2011 7.93684H28.3698V10.0104H26.886C26.4294 10.0104 26.0933 10.0865 25.8777 10.2387C25.6748 10.3782 25.5734 10.5938 25.5734 10.8854C25.5734 11.1264 25.6621 11.3293 25.8397 11.4942C26.0299 11.6464 26.2836 11.7225 26.6006 11.7225C26.8923 11.7225 27.1586 11.6464 27.3996 11.4942C27.6532 11.3293 27.8371 11.0757 27.9513 10.7333L28.5029 12.0078C28.3381 12.7814 27.9893 13.3585 27.4567 13.7389C26.924 14.1194 26.2075 14.3096 25.307 14.3096Z" fill="white"/>
<path d="M18.2253 14.3059C16.7922 14.3059 15.6761 13.9635 14.8772 13.2787C14.0782 12.5812 13.6787 11.5159 13.6787 10.0828V1.37012H17.978V10.0447C17.978 10.3618 18.0604 10.6091 18.2253 10.7866C18.4028 10.9642 18.6184 11.053 18.8721 11.053C19.2398 11.053 19.5632 10.9578 19.8422 10.7676L20.8695 13.7543C20.5398 13.9445 20.1403 14.084 19.671 14.1728C19.2145 14.2616 18.7326 14.3059 18.2253 14.3059ZM12.252 7.41952V4.28068H20.1086V7.41952H12.252Z" fill="white"/>
<path d="M5.8021 14.4211C4.68607 14.4211 3.60808 14.2943 2.56814 14.0407C1.5282 13.787 0.672156 13.4573 0 13.0515L1.44577 9.77945C2.07988 10.1472 2.78374 10.4453 3.55735 10.6735C4.34365 10.8891 5.10458 10.9969 5.84015 10.9969C6.27134 10.9969 6.60742 10.9716 6.84838 10.9208C7.10203 10.8574 7.28592 10.775 7.40006 10.6735C7.5142 10.5594 7.57127 10.4262 7.57127 10.2741C7.57127 10.0331 7.4381 9.84286 7.17178 9.70336C6.90545 9.56385 6.55035 9.44971 6.10647 9.36094C5.67528 9.25948 5.1997 9.15802 4.67973 9.05657C4.15976 8.94243 3.63345 8.79658 3.1008 8.61903C2.58083 8.44148 2.0989 8.20686 1.65503 7.91517C1.22383 7.62348 0.875071 7.24302 0.608745 6.77377C0.342419 6.29185 0.209256 5.69579 0.209256 4.98559C0.209256 4.16124 0.437535 3.413 0.894094 2.74084C1.36334 2.056 2.05451 1.51067 2.96763 1.10484C3.89343 0.699009 5.04117 0.496094 6.41085 0.496094C7.31128 0.496094 8.19903 0.59121 9.07411 0.781443C9.94918 0.971675 10.7355 1.26337 11.433 1.65651L10.0823 4.90949C9.42287 4.57976 8.78242 4.33245 8.16099 4.16759C7.55224 4.00272 6.95618 3.92028 6.3728 3.92028C5.94161 3.92028 5.59919 3.95833 5.34554 4.03442C5.0919 4.11051 4.90801 4.21197 4.79387 4.33879C4.69241 4.46562 4.64168 4.60512 4.64168 4.75731C4.64168 4.98559 4.77484 5.16948 5.04117 5.30898C5.3075 5.4358 5.65626 5.5436 6.08745 5.63238C6.53133 5.72115 7.01325 5.81627 7.53322 5.91773C8.06587 6.01918 8.59218 6.15869 9.11215 6.33624C9.63212 6.51379 10.1077 6.74841 10.5389 7.0401C10.9828 7.33179 11.3379 7.71226 11.6042 8.1815C11.8705 8.65074 12.0037 9.23412 12.0037 9.93164C12.0037 10.7433 11.7691 11.4915 11.2998 12.1764C10.8433 12.8485 10.1584 13.3939 9.24531 13.8124C8.3322 14.2182 7.18446 14.4211 5.8021 14.4211Z" fill="white"/>
</svg>
