<svg width="60" height="60" viewBox="0 0 60 60" fill="none" xmlns="http://www.w3.org/2000/svg">
<circle cx="30" cy="30" r="26" fill="white"/>
<path fill-rule="evenodd" clip-rule="evenodd" d="M60 30C60 46.5375 46.575 60 30 60C13.425 60 0 46.5375 0 30C0 13.425 13.425 0 30 0C46.575 0 60 13.425 60 30ZM33.1875 27.3375L45.75 12.7875H42.75L31.875 25.425L23.175 12.7875H13.1625L26.325 31.9125L13.1625 47.175H16.125L27.6375 33.825L36.825 47.175H46.8375L33.1875 27.3375ZM17.175 15H21.75L42.75 45.0375H38.175L17.175 15Z" fill="#303030"/>
</svg>
