<svg width="16" height="16" viewBox="0 0 16 16" fill="none" xmlns="http://www.w3.org/2000/svg">
<path d="M14.3245 13.3118C13.3363 11.6043 11.7851 10.4062 9.98259 9.89809C10.8589 9.45262 11.5597 8.72499 11.9719 7.83252C12.3841 6.94005 12.4837 5.93476 12.2547 4.97875C12.0257 4.02274 11.4813 3.17172 10.7094 2.56293C9.93757 1.95414 8.98316 1.62305 8.00009 1.62305C7.01703 1.62305 6.06261 1.95414 5.29074 2.56293C4.51887 3.17172 3.97453 4.02274 3.74549 4.97875C3.51645 5.93476 3.61607 6.94005 4.02828 7.83252C4.44048 8.72499 5.14125 9.45262 6.01759 9.89809C4.21509 10.4056 2.66384 11.6037 1.67572 13.3118C1.64859 13.3545 1.63037 13.4022 1.62216 13.4522C1.61395 13.5021 1.61592 13.5531 1.62795 13.6022C1.63999 13.6514 1.66183 13.6975 1.69218 13.738C1.72252 13.7785 1.76073 13.8124 1.80452 13.8377C1.84831 13.863 1.89676 13.8792 1.94697 13.8853C1.99718 13.8914 2.0481 13.8873 2.09667 13.8732C2.14524 13.8591 2.19046 13.8353 2.22961 13.8033C2.26876 13.7713 2.30103 13.7317 2.32447 13.6868C3.52509 11.6125 5.64634 10.3743 8.00009 10.3743C10.3538 10.3743 12.4751 11.6125 13.6757 13.6868C13.6992 13.7317 13.7314 13.7713 13.7706 13.8033C13.8097 13.8353 13.8549 13.8591 13.9035 13.8732C13.9521 13.8873 14.003 13.8914 14.0532 13.8853C14.1034 13.8792 14.1519 13.863 14.1957 13.8377C14.2395 13.8124 14.2777 13.7785 14.308 13.738C14.3384 13.6975 14.3602 13.6514 14.3722 13.6022C14.3843 13.5531 14.3862 13.5021 14.378 13.4522C14.3698 13.4022 14.3516 13.3545 14.3245 13.3118ZM4.37509 5.99934C4.37509 5.28238 4.5877 4.58152 4.98602 3.9854C5.38434 3.38927 5.95048 2.92464 6.61287 2.65027C7.27525 2.37591 8.00411 2.30412 8.7073 2.44399C9.41048 2.58386 10.0564 2.92911 10.5634 3.43608C11.0703 3.94304 11.4156 4.58895 11.5554 5.29214C11.6953 5.99532 11.6235 6.72418 11.3492 7.38657C11.0748 8.04895 10.6102 8.61509 10.014 9.01341C9.41791 9.41174 8.71705 9.62434 8.00009 9.62434C7.03904 9.62318 6.11768 9.24089 5.43811 8.56132C4.75854 7.88175 4.37625 6.96039 4.37509 5.99934Z" fill="white"/>
</svg>
