<svg width="64" height="65" viewBox="0 0 64 65" fill="none" xmlns="http://www.w3.org/2000/svg">
<rect y="0.619141" width="64" height="64" rx="32" fill="#303030"/>
<g clip-path="url(#clip0_906_14142)">
<path d="M35.75 40.5004C32.7673 40.4971 29.9078 39.3108 27.7987 37.2017C25.6896 35.0926 24.5033 32.2331 24.5 29.2504C24.4998 28.3834 24.7999 27.5431 25.3495 26.8725C25.899 26.2019 26.6639 25.7424 27.5141 25.5723L29.3078 29.166L27.4141 32.0004L27.6719 32.6254C28.5662 34.751 30.2572 36.442 32.3828 37.3363L33.0078 37.5941L35.8469 35.7004L39.4406 37.4941C39.2685 38.345 38.8065 39.1097 38.1334 39.6579C37.4604 40.2061 36.618 40.5039 35.75 40.5004Z" fill="white" stroke="white" stroke-width="2.35294" stroke-linecap="round" stroke-linejoin="round"/>
<path d="M24.4889 45.9864C27.6397 47.81 31.3462 48.4254 34.9173 47.718C38.4884 47.0106 41.6803 45.0286 43.898 42.1416C46.1158 39.2546 47.2079 35.6596 46.9707 32.0268C46.7336 28.3941 45.1834 24.9715 42.6092 22.3973C40.035 19.8231 36.6124 18.2729 32.9797 18.0358C29.3469 17.7986 25.7519 18.8907 22.8649 21.1084C19.9778 23.3262 17.9959 26.5181 17.2885 30.0892C16.5811 33.6603 17.1965 37.3668 19.0201 40.5176L17.0654 46.3536C16.992 46.5738 16.9813 46.8102 17.0346 47.0361C17.088 47.2621 17.2032 47.4687 17.3673 47.6329C17.5315 47.7971 17.7382 47.9123 17.9641 47.9656C18.1901 48.0189 18.4264 48.0083 18.6467 47.9348L24.4889 45.9864Z" stroke="white" stroke-width="2.35294" stroke-linecap="round" stroke-linejoin="round"/>
</g>
<defs>
<clipPath id="clip0_906_14142">
<rect width="40" height="40" fill="white" transform="translate(12 13)"/>
</clipPath>
</defs>
</svg>
